<svg xmlns="http://www.w3.org/2000/svg" xmlns:xlink="http://www.w3.org/1999/xlink" width="125" zoomAndPan="magnify" viewBox="0 0 93.75 93.749997" height="125" preserveAspectRatio="xMidYMid meet" version="1.0"><defs><clipPath id="1c7b8078be"><path d="M 1.785156 18 L 91.546875 18 L 91.546875 28 L 1.785156 28 Z M 1.785156 18 " clip-rule="nonzero"/></clipPath><clipPath id="ae66b9c920"><path d="M 35 12.746094 L 58 12.746094 L 58 41 L 35 41 Z M 35 12.746094 " clip-rule="nonzero"/></clipPath><clipPath id="835845db90"><path d="M 6.15625 55.210938 L 87 55.210938 L 87 80.722656 L 6.15625 80.722656 Z M 6.15625 55.210938 " clip-rule="nonzero"/></clipPath></defs><g clip-path="url(#1c7b8078be)"><path fill="#ffffff" d="M 1.785156 18.507812 L 1.785156 27.4375 L 33.097656 27.4375 L 33.097656 18.507812 Z M 91.707031 27.4375 L 60.398438 27.4375 L 60.398438 18.507812 L 91.707031 18.507812 L 91.707031 27.4375 " fill-opacity="1" fill-rule="nonzero"/></g><g clip-path="url(#ae66b9c920)"><path fill="#ffffff" d="M 57.984375 17.289062 L 57.984375 37.058594 C 57.984375 39.230469 56.222656 40.988281 54.054688 40.988281 L 39.441406 40.988281 C 37.269531 40.988281 35.507812 39.230469 35.507812 37.058594 L 35.507812 12.746094 L 57.984375 12.746094 L 57.984375 17.289062 " fill-opacity="1" fill-rule="nonzero"/></g><path fill="#ffffff" d="M 43.1875 43.246094 L 50.304688 43.246094 L 50.304688 47.433594 L 47.390625 53.089844 C 47.121094 53.617188 46.371094 53.617188 46.101562 53.09375 L 43.1875 47.433594 L 43.1875 43.246094 " fill-opacity="1" fill-rule="nonzero"/><g clip-path="url(#835845db90)"><path fill="#ffffff" d="M 85.578125 80.722656 L 13.367188 80.722656 C 9.484375 80.722656 6.328125 77.5625 6.328125 73.683594 C 6.328125 69.796875 9.484375 66.640625 13.367188 66.640625 L 35.847656 66.640625 C 41.105469 66.640625 45.386719 62.363281 45.386719 57.105469 C 45.386719 56.351562 45.992188 55.742188 46.746094 55.742188 C 47.5 55.742188 48.109375 56.351562 48.109375 57.105469 C 48.109375 63.867188 42.605469 69.367188 35.847656 69.367188 L 13.367188 69.367188 C 10.984375 69.367188 9.050781 71.300781 9.050781 73.683594 C 9.050781 76.058594 10.984375 77.996094 13.367188 77.996094 L 85.578125 77.996094 C 86.328125 77.996094 86.941406 78.605469 86.941406 79.359375 C 86.941406 80.113281 86.328125 80.722656 85.578125 80.722656 " fill-opacity="1" fill-rule="nonzero"/></g></svg>